<?xml version="1.0" encoding="utf-8"?><svg width="269" height="140" viewBox="0 0 269 140" xmlns="http://www.w3.org/2000/svg" xmlns:xlink="http://www.w3.org/1999/xlink"><svg width="28" height="28" fill="none" viewBox="0 0 28 28" id="arrowright45svg" x="100" y="40" xmlns="http://www.w3.org/2000/svg"><path d="M10.998 6.987h10.015v10.015M6.989 21.01 20.873 7.128" stroke="#173D33" stroke-width="1.5" stroke-miterlimit="10" stroke-linecap="round" stroke-linejoin="round"/></svg><svg width="16" height="17" fill="none" viewBox="0 0 16 17" id="arrowrightsvg" x="200" y="40" xmlns="http://www.w3.org/2000/svg"><path d="M9.62 4.453 13.667 8.5 9.62 12.546M2.333 8.5h11.22" stroke="#173D33" stroke-miterlimit="10" stroke-linecap="round" stroke-linejoin="round"/></svg><svg width="16" height="16" fill="none" viewBox="0 0 16 16" id="arrowupsvg" x="232" y="40" xmlns="http://www.w3.org/2000/svg"><path d="M3.953 6.38 8 2.333l4.046 4.047M8 13.667V2.447" stroke="#97D28B" stroke-miterlimit="10" stroke-linecap="round" stroke-linejoin="round"/></svg><svg width="24" height="24" fill="none" viewBox="0 0 24 24" id="locationsvg" x="128" y="40" xmlns="http://www.w3.org/2000/svg"><path d="M2.29 7.78v9.73c0 1.9 1.35 2.68 2.99 1.74l2.35-1.34c.51-.29 1.36-.32 1.89-.05l5.25 2.63c.53.26 1.38.24 1.89-.05l4.33-2.48c.55-.32 1.01-1.1 1.01-1.74V6.49c0-1.9-1.35-2.68-2.99-1.74l-2.35 1.34c-.51.29-1.36.32-1.89.05L9.52 3.52c-.53-.26-1.38-.24-1.89.05L3.3 6.05c-.56.32-1.01 1.1-1.01 1.73ZM8.56 4v13M15.73 6.62V20" stroke="#173D33" stroke-width="1.5" stroke-linecap="round" stroke-linejoin="round"/></svg><svg width="269" height="40" fill="none" viewBox="0 0 269 40" id="logosvg" xmlns="http://www.w3.org/2000/svg"><path d="M212.94 22.14c-1.093 0-1.923-.343-2.49-1.03-.567-.687-.85-1.58-.85-2.68 0-.507.063-.977.19-1.41.133-.44.327-.833.58-1.18.26-.353.607-.63 1.04-.83.433-.2.93-.3 1.49-.3.767 0 1.393.18 1.88.54.487.353.82.867 1 1.54l-.91.19c-.3-.953-.953-1.43-1.96-1.43-.753 0-1.34.257-1.76.77-.42.513-.63 1.227-.63 2.14 0 .92.213 1.63.64 2.13.427.493 1.027.74 1.8.74.647 0 1.15-.16 1.51-.48.367-.32.55-.707.55-1.16v-.75h-1.99v-.76h2.86v1.36c0 .74-.257 1.36-.77 1.86-.513.493-1.24.74-2.18.74Zm4.249-.14v-7.14h2.62c.754 0 1.344.183 1.77.55.427.36.64.863.64 1.51 0 .52-.143.953-.43 1.3-.286.34-.693.563-1.22.67l1.74 3.11h-1.06l-1.58-2.98h-1.56V22h-.92Zm.92-3.81h1.67c.474 0 .84-.107 1.1-.32.267-.213.4-.51.4-.89 0-.873-.506-1.31-1.52-1.31h-1.65v2.52Zm5.409 3.81v-7.14h4.82v.81h-3.9v2.31h3.23v.81h-3.23v2.4h3.91V22h-4.83Zm6.045 0v-7.14h4.82v.81h-3.9v2.31h3.23v.81h-3.23v2.4h3.91V22h-4.83Zm6.045 0v-7.14h1.11l3.28 4.89.54.86h.1l-.01-1.37v-4.38h.89V22h-1.06l-3.17-4.69-.69-1.06h-.09l.01 1.36V22h-.91Z" fill="#97D28B"/><path d="M243.246 22v-7.14h4.82v.81h-3.9v2.31h3.23v.81h-3.23v2.4h3.91V22h-4.83Zm6.045 0v-7.14h2.62c.753 0 1.343.183 1.77.55.427.36.64.863.64 1.51 0 .52-.143.953-.43 1.3-.287.34-.693.563-1.22.67l1.74 3.11h-1.06l-1.58-2.98h-1.56V22h-.92Zm.92-3.81h1.67c.473 0 .84-.107 1.1-.32.267-.213.4-.51.4-.89 0-.873-.507-1.31-1.52-1.31h-1.65v2.52Zm8.288 3.95c-1.093 0-1.923-.343-2.49-1.03-.566-.687-.85-1.58-.85-2.68 0-.507.064-.977.19-1.41.134-.44.327-.833.58-1.18.26-.353.607-.63 1.04-.83.434-.2.93-.3 1.49-.3.767 0 1.394.18 1.88.54.487.353.82.867 1 1.54l-.91.19c-.3-.953-.953-1.43-1.96-1.43-.753 0-1.34.257-1.76.77-.42.513-.63 1.227-.63 2.14 0 .92.214 1.63.64 2.13.427.493 1.027.74 1.8.74.647 0 1.15-.16 1.51-.48.367-.32.55-.707.55-1.16v-.75h-1.99v-.76h2.86v1.36c0 .74-.256 1.36-.77 1.86-.513.493-1.24.74-2.18.74Zm5.884-.14v-2.53l-2.57-4.61h1.07l1.95 3.71 1.96-3.71h1.06l-2.55 4.61V22h-.92Zm-54.323 9v-7.14h4.68v.81h-3.76v2.48h3.12v.82h-3.12V31h-.92Zm8.496.14c-1.06 0-1.89-.357-2.49-1.07-.593-.713-.89-1.597-.89-2.65s.304-1.933.91-2.64c.614-.713 1.437-1.07 2.47-1.07 1.034 0 1.857.357 2.47 1.07.614.713.92 1.593.92 2.64 0 1.053-.3 1.937-.9 2.65-.593.713-1.423 1.07-2.49 1.07Zm0-.82c.747 0 1.34-.263 1.78-.79.447-.527.67-1.23.67-2.11 0-.873-.223-1.573-.67-2.1-.446-.54-1.04-.81-1.78-.81-.726 0-1.316.27-1.77.81-.446.527-.67 1.227-.67 2.1 0 .88.22 1.583.66 2.11.447.527 1.04.79 1.78.79Zm4.63.68v-7.14h2.62c.753 0 1.343.183 1.77.55.426.36.64.863.64 1.51 0 .52-.144.953-.43 1.3-.287.34-.694.563-1.22.67l1.74 3.11h-1.06l-1.58-2.98h-1.56V31h-.92Zm.92-3.81h1.67c.473 0 .84-.107 1.1-.32.266-.213.4-.51.4-.89 0-.873-.507-1.31-1.52-1.31h-1.65v2.52ZM231.81 31v-7.14h.92v6.32h3.75V31h-4.67Zm5.615 0v-7.14h.92V31h-.92Zm2.647 0v-7.14h4.68v.81h-3.76v2.48h3.12v.82h-3.12V31h-.92Zm5.694 0v-7.14h4.82v.81h-3.9v2.31h3.23v.81h-3.23v2.4h3.91V31h-4.83ZM44.735 31.429c-5.148 0-8.778-3.63-8.778-8.58s3.63-8.58 8.778-8.58c5.148 0 8.712 3.63 8.712 8.58v1.287H39.719c.495 2.607 2.475 4.026 5.016 4.026 1.914 0 3.3-.561 4.191-1.782h3.861c-1.254 3.069-4.224 5.049-8.052 5.049Zm-4.917-10.296h9.867c-.627-2.376-2.574-3.597-4.95-3.597-2.442 0-4.29 1.254-4.917 3.597Zm22.997 10.296c-5.148 0-8.778-3.63-8.778-8.58s3.63-8.58 8.778-8.58c4.39 0 7.623 2.64 8.448 6.435h-3.597c-.759-1.881-2.508-3.135-4.85-3.135-3.103 0-5.182 2.211-5.182 5.28 0 3.069 2.08 5.28 5.181 5.28 2.343 0 4.092-1.254 4.851-3.135h3.597c-.825 3.795-4.059 6.435-8.448 6.435Zm17.823 0c-5.148 0-8.778-3.63-8.778-8.58s3.63-8.58 8.778-8.58c5.148 0 8.778 3.63 8.778 8.58s-3.63 8.58-8.778 8.58Zm0-3.3c3.102 0 5.148-2.211 5.148-5.28 0-3.069-2.046-5.28-5.148-5.28s-5.181 2.211-5.181 5.28c0 3.069 2.079 5.28 5.181 5.28Zm16.23 3.3c-4.124 0-6.731-2.211-6.83-5.214h3.597c.066 1.221 1.155 2.046 3.234 2.046 2.178 0 3.201-.924 3.201-2.046 0-1.386-1.551-1.551-3.465-1.815-2.64-.33-6.237-.825-6.237-4.686 0-3.267 2.54-5.445 6.468-5.445 3.927 0 6.369 2.244 6.435 5.082H99.74c-.1-1.122-1.122-1.914-2.871-1.914-1.881 0-2.904.891-2.904 2.013 0 1.386 1.617 1.551 3.465 1.815 2.508.33 6.237.792 6.237 4.686 0 3.3-2.673 5.478-6.798 5.478Zm16.225 0c-5.148 0-8.778-3.63-8.778-8.58s3.63-8.58 8.778-8.58c5.148 0 8.778 3.63 8.778 8.58s-3.63 8.58-8.778 8.58Zm0-3.3c3.102 0 5.148-2.211 5.148-5.28 0-3.069-2.046-5.28-5.148-5.28s-5.181 2.211-5.181 5.28c0 3.069 2.079 5.28 5.181 5.28ZM123.681 31V7.57h3.564V31h-3.564Zm14.131.429c-4.818 0-8.052-2.772-8.052-8.25v-8.481h3.564v8.481c0 3.3 1.782 4.95 4.488 4.95 2.706 0 4.488-1.65 4.488-4.95v-8.481h3.564v8.481c0 5.445-3.234 8.25-8.052 8.25Zm16.563 0c-3.927 0-6.6-2.178-6.6-6.666V8.923h3.564v5.775h8.679v3.234h-8.679v6.831c0 2.376 1.221 3.366 3.036 3.366s3.069-.957 3.069-3.366v-.396h3.531v.396c0 4.488-2.673 6.666-6.6 6.666Zm10.215-19.041c-1.386 0-2.409-1.056-2.409-2.442 0-1.386 1.023-2.442 2.409-2.442s2.409 1.056 2.409 2.442c0 1.386-1.023 2.442-2.409 2.442ZM162.775 31V14.698h3.564V31h-3.564Zm14.165.429c-5.148 0-8.778-3.63-8.778-8.58s3.63-8.58 8.778-8.58c5.148 0 8.778 3.63 8.778 8.58s-3.63 8.58-8.778 8.58Zm0-3.3c3.102 0 5.148-2.211 5.148-5.28 0-3.069-2.046-5.28-5.148-5.28s-5.181 2.211-5.181 5.28c0 3.069 2.079 5.28 5.181 5.28ZM186.967 31v-8.481c0-5.445 3.234-8.25 8.052-8.25s8.052 2.772 8.052 8.25V31h-3.564v-8.481c0-3.3-1.782-4.95-4.488-4.95-2.706 0-4.488 1.65-4.488 4.95V31h-3.564Z" fill="#173D33"/><g clip-path="url(#ea)"><path d="M21.33 26.809c-.065-.154-5.391-10.56-5.478-10.704a3.425 3.425 0 0 0-.802-1.152 3.48 3.48 0 0 0-1.201-.741 3.517 3.517 0 0 0-2.77.157c-.426.213-.803.51-1.107.872a3.38 3.38 0 0 0-.301 3.948c.065.154 5.162 10.115 5.25 10.258.064.154.14.303.228.446.184.435.456.827.8 1.153a3.48 3.48 0 0 0 1.202.74 3.52 3.52 0 0 0 2.77-.157c.426-.212.803-.51 1.108-.872a3.38 3.38 0 0 0 .301-3.948Z" fill="#173D33"/><path d="M15.18 19.767c.326-.343.577-.749.738-1.192a3.38 3.38 0 0 0-.19-2.729 3.434 3.434 0 0 0-.894-1.082 3.52 3.52 0 0 0-4.005-.256 3.454 3.454 0 0 0-1.03.959c-.115.12-8.762 10.63-8.858 10.765a3.415 3.415 0 0 0-.739 1.192 3.38 3.38 0 0 0 .19 2.729c.219.418.524.786.894 1.082a3.518 3.518 0 0 0 4.005.256 3.452 3.452 0 0 0 1.03-.959c.115-.12 8.762-10.63 8.858-10.765ZM30.06 19.767c.326-.343.578-.75.738-1.192a3.38 3.38 0 0 0-.189-2.729 3.435 3.435 0 0 0-.895-1.082 3.519 3.519 0 0 0-4.005-.256 3.452 3.452 0 0 0-1.03.959c-.114.12-8.762 10.63-8.858 10.765a3.416 3.416 0 0 0-.738 1.192 3.38 3.38 0 0 0 .188 2.729c.22.417.525.786.896 1.082a3.52 3.52 0 0 0 4.005.256 3.452 3.452 0 0 0 1.03-.959c.114-.12 8.762-10.63 8.858-10.765Z" fill="#97D28B"/></g><defs><clipPath id="ea"><path fill="#fff" transform="translate(0 14)" d="M0 0h31v18H0z"/></clipPath></defs></svg><svg width="24" height="24" fill="none" viewBox="0 0 24 24" id="mailsvg" x="152" y="40" xmlns="http://www.w3.org/2000/svg"><path d="M17 20.5H7c-3 0-5-1.5-5-5v-7c0-3.5 2-5 5-5h10c3 0 5 1.5 5 5v7c0 3.5-2 5-5 5Z" stroke="#173D33" stroke-width="1.5" stroke-miterlimit="10" stroke-linecap="round" stroke-linejoin="round"/><path d="m17 9-3.13 2.5c-1.03.82-2.72.82-3.75 0L7 9" stroke="#173D33" stroke-width="1.5" stroke-miterlimit="10" stroke-linecap="round" stroke-linejoin="round"/></svg><svg width="16" height="17" fill="none" viewBox="0 0 16 17" id="menusvg" x="216" y="40" xmlns="http://www.w3.org/2000/svg"><path d="M2 5.167h12M2 8.5h12M2 11.833h12" stroke="#292D32" stroke-linecap="round"/></svg><svg width="24" height="24" fill="none" viewBox="0 0 24 24" id="phonesvg" x="176" y="40" xmlns="http://www.w3.org/2000/svg"><path d="M21.97 18.33c0 .36-.08.73-.25 1.09-.17.36-.39.7-.68 1.02-.49.54-1.03.93-1.64 1.18-.6.25-1.25.38-1.95.38-1.02 0-2.11-.24-3.26-.73s-2.3-1.15-3.44-1.98a28.75 28.75 0 0 1-3.28-2.8 28.414 28.414 0 0 1-2.79-3.27c-.82-1.14-1.48-2.28-1.96-3.41C2.24 8.67 2 7.58 2 6.54c0-.68.12-1.33.36-1.93.24-.61.62-1.17 1.15-1.67C4.15 2.31 4.85 2 5.59 2c.28 0 .56.06.81.18.26.12.49.3.67.56l2.32 3.27c.18.25.31.48.4.7.09.21.14.42.14.61 0 .24-.07.48-.21.71-.13.23-.32.47-.56.71l-.76.79c-.11.11-.16.24-.16.4 0 .08.01.15.03.23.03.08.06.14.08.2.18.33.49.76.93 1.28.45.52.93 1.05 1.45 1.58.54.53 1.06 1.02 1.59 1.47.52.44.95.74 1.29.92.05.02.11.05.18.08.08.03.16.04.25.04.17 0 .3-.06.41-.17l.76-.75c.25-.25.49-.44.72-.56.23-.14.46-.21.71-.21.19 0 .39.04.61.13.22.09.45.22.7.39l3.31 2.35c.26.18.44.39.55.64.1.25.16.5.16.78Z" stroke="#173D33" stroke-width="1.5" stroke-miterlimit="10"/></svg><svg aria-hidden="true" style="position:absolute;width:0;height:0;overflow:hidden" viewBox="0 0 100 100" width="100" height="100" id="spritesvg" y="40" xmlns="http://www.w3.org/2000/svg"><defs><symbol id="iicon-arrow-left" viewBox="0 0 32 32"><path stroke-linejoin="round" stroke-linecap="round" stroke-miterlimit="10" stroke-width="1.333" d="m12.759 7.905-8.093 8.093 8.093 8.093M27.332 15.999H4.892"/></symbol><symbol id="iicon-arrow-right" viewBox="0 0 32 32"><path stroke-linejoin="round" stroke-linecap="round" stroke-miterlimit="10" stroke-width="1.333" d="m19.241 7.905 8.093 8.093-8.093 8.093M4.668 15.999h22.44"/></symbol><symbol id="iicon-arrow-up" viewBox="0 0 32 32"><path stroke-linejoin="round" stroke-linecap="round" stroke-miterlimit="10" stroke-width="2" d="m7.906 12.76 8.093-8.093 8.093 8.093M16 27.333V4.893"/></symbol><symbol id="iicon-burger-menu" viewBox="0 0 30 32"><path stroke-linecap="round" stroke-width="1.882" d="M3.765 9.726h22.588M3.765 16h22.588M3.765 22.274h22.588"/></symbol><symbol id="iicon-circle" viewBox="0 0 30 32"><path d="M29.867 16c0 8.247-6.686 14.933-14.933 14.933S.001 24.247.001 16 6.687 1.067 14.934 1.067 29.867 7.753 29.867 16z"/></symbol><symbol id="iicon-cpu-charge" viewBox="0 0 32 32"><path stroke-linejoin="round" stroke-linecap="round" stroke-width="2" d="M12.8 26.667h6.4c5.333 0 7.467-2.133 7.467-7.467v-6.4c0-5.333-2.133-7.467-7.467-7.467h-6.4c-5.333 0-7.467 2.133-7.467 7.467v6.4c0 5.333 2.133 7.467 7.467 7.467z"/><path stroke-linejoin="round" stroke-linecap="round" stroke-width="2" d="M14 22.667h4c3.333 0 4.667-1.333 4.667-4.667v-4c0-3.333-1.333-4.667-4.667-4.667h-4c-3.333 0-4.667 1.333-4.667 4.667v4c0 3.333 1.333 4.667 4.667 4.667zM10.68 5.333V2.666M16 5.333V2.666M21.333 5.333V2.666M26.667 10.667h2.667M26.667 16h2.667M26.667 21.333h2.667M21.333 26.667v2.667M16.013 26.667v2.667M10.68 26.667v2.667M2.667 10.667h2.667M2.667 16h2.667M2.667 21.333h2.667"/><path stroke-linejoin="round" stroke-linecap="round" stroke-width="2" d="m16 12.933-1.253 2.187c-.28.48-.053.88.507.88h1.493c.56 0 .787.4.507.88l-1.253 2.187"/></symbol><symbol id="iicon-cross" viewBox="0 0 32 32"><path stroke-linejoin="round" stroke-linecap="round" stroke-width="4.8" d="m2.667 2.666 26.667 26.667m-26.667 0L29.334 2.666"/></symbol><symbol id="iicon-facebook" viewBox="0 0 32 32"><path fill="#173d33" style="fill:var(--color1, #173d33)" d="M18.667 12.4v3.867h3.467c.267 0 .4.267.4.533l-.533 2.533c0 .133-.267.267-.4.267h-2.933v9.733h-4v-9.6h-2.267c-.267 0-.4-.133-.4-.4V16.8c0-.267.133-.4.4-.4h2.267V12c0-2.267 1.733-4 4-4h3.6c.267 0 .4.133.4.4v3.2c0 .267-.133.4-.4.4h-3.2c-.267 0-.4.133-.4.4z"/><path stroke-linejoin="round" stroke-linecap="round" stroke-width="2" d="M20 29.333h-8c-6.667 0-9.333-2.667-9.333-9.333v-8c0-6.667 2.667-9.333 9.333-9.333h8c6.667 0 9.333 2.667 9.333 9.333v8c0 6.667-2.667 9.333-9.333 9.333z"/></symbol><symbol id="iicon-global-edit" viewBox="0 0 32 32"><path stroke-linejoin="round" stroke-linecap="round" stroke-width="2" d="M29.333 16C29.333 8.64 23.36 2.667 16 2.667S2.667 8.64 2.667 16 8.64 29.333 16 29.333"/><path stroke-linejoin="round" stroke-linecap="round" stroke-width="2" d="M10.666 4h1.333a37.898 37.898 0 0 0 0 24h-1.333M20 4a38.083 38.083 0 0 1 1.947 12"/><path stroke-linejoin="round" stroke-linecap="round" stroke-width="2" d="M4 21.333V20a38.083 38.083 0 0 0 12 1.947M4 12a37.898 37.898 0 0 1 24 0"/><path stroke-linejoin="round" stroke-linecap="round" stroke-miterlimit="10" stroke-width="2" d="m25.614 20.987-4.72 4.72a1.64 1.64 0 0 0-.4.787l-.253 1.8c-.093.653.36 1.107 1.013 1.013l1.8-.253c.253-.04.613-.213.787-.4l4.72-4.72c.813-.813 1.2-1.76 0-2.96-1.187-1.187-2.133-.8-2.947.013z"/><path stroke-linejoin="round" stroke-linecap="round" stroke-miterlimit="10" stroke-width="2" d="M24.934 21.667c.4 1.44 1.52 2.56 2.96 2.96"/></symbol><symbol id="iicon-instagram" viewBox="0 0 32 32"><path stroke-linejoin="round" stroke-linecap="round" stroke-width="2" d="M12 29.333h8c6.667 0 9.333-2.667 9.333-9.333v-8c0-6.667-2.667-9.333-9.333-9.333h-8c-6.667 0-9.333 2.667-9.333 9.333v8c0 6.667 2.667 9.333 9.333 9.333z"/><path stroke-linejoin="round" stroke-linecap="round" stroke-width="2" d="M16 20.667a4.667 4.667 0 1 0 0-9.334 4.667 4.667 0 0 0 0 9.334z"/><path stroke-linejoin="round" stroke-linecap="round" stroke-width="2.667" d="M23.515 9.333h.015"/></symbol><symbol id="iicon-logo1" viewBox="0 0 55 32"><path fill="#173d33" style="fill:var(--color1, #173d33)" d="M37.919 22.771c-.115-.273-9.583-18.774-9.738-19.029-.327-.772-.812-1.47-1.425-2.049S25.416.665 24.62.376a6.266 6.266 0 0 0-4.925.28 6.159 6.159 0 0 0-1.968 1.55c-.541.645-.942 1.392-1.177 2.197a6.012 6.012 0 0 0 .641 4.822c.115.273 9.177 17.981 9.332 18.236.116.274.251.539.406.793.327.772.812 1.47 1.425 2.049s1.34 1.028 2.136 1.317a6.266 6.266 0 0 0 4.925-.28c.758-.378 1.427-.906 1.968-1.55s.942-1.393 1.177-2.197a6.01 6.01 0 0 0-.641-4.822z"/><path fill="#97d28b" style="fill:var(--color2, #97d28b)" d="M26.985 10.252c.58-.61 1.027-1.331 1.312-2.119a6.023 6.023 0 0 0-1.927-6.775C25.711.831 24.949.444 24.131.221S22.458-.057 21.618.06c-.84.117-1.646.404-2.369.842s-1.346 1.019-1.831 1.705c-.204.214-15.577 18.897-15.748 19.139-.58.61-1.027 1.331-1.312 2.119a6.006 6.006 0 0 0 .335 4.851 6.104 6.104 0 0 0 1.592 1.924c.659.527 1.421.914 2.239 1.137s1.673.278 2.513.161c.84-.117 1.646-.404 2.369-.842s1.346-1.019 1.831-1.705c.204-.214 15.577-18.897 15.748-19.138zM53.439 10.252c.58-.61 1.027-1.331 1.312-2.119a6.006 6.006 0 0 0-.335-4.851 6.104 6.104 0 0 0-1.592-1.924C52.165.831 51.403.444 50.585.221S48.912-.057 48.072.06c-.84.117-1.646.404-2.369.842s-1.346 1.019-1.831 1.705c-.204.214-15.577 18.897-15.748 19.138-.58.61-1.027 1.332-1.312 2.119a6.004 6.004 0 0 0 .335 4.851 6.104 6.104 0 0 0 1.592 1.924c.659.527 1.421.914 2.239 1.137s1.673.278 2.513.161c.84-.117 1.646-.404 2.369-.842s1.346-1.019 1.831-1.705c.204-.214 15.577-18.897 15.748-19.139z"/></symbol><symbol id="iicon-logo2" viewBox="0 0 216 32"><path d="M12.461 31.269c-6.589 0-11.236-4.646-11.236-10.982S5.871 9.305 12.461 9.305c6.589 0 11.151 4.646 11.151 10.982v1.647H6.04c.634 3.337 3.168 5.153 6.42 5.153 2.45 0 4.224-.718 5.364-2.281h4.942c-1.605 3.928-5.407 6.463-10.307 6.463zM6.167 18.09h12.63c-.803-3.041-3.295-4.604-6.336-4.604-3.126 0-5.491 1.605-6.294 4.604zm29.437 13.179c-6.589 0-11.236-4.646-11.236-10.982S29.014 9.305 35.604 9.305c5.618 0 9.757 3.379 10.813 8.237h-4.604c-.972-2.408-3.21-4.013-6.209-4.013-3.971 0-6.632 2.83-6.632 6.758s2.661 6.758 6.632 6.758c2.999 0 5.238-1.605 6.209-4.013h4.604c-1.056 4.858-5.196 8.237-10.813 8.237zm22.813 0c-6.589 0-11.236-4.646-11.236-10.982S51.827 9.305 58.417 9.305c6.589 0 11.236 4.646 11.236 10.982s-4.646 10.982-11.236 10.982zm0-4.224c3.971 0 6.589-2.83 6.589-6.758s-2.619-6.758-6.589-6.758c-3.971 0-6.632 2.83-6.632 6.758s2.661 6.758 6.632 6.758zm20.775 4.224c-5.28 0-8.617-2.83-8.744-6.674h4.604c.084 1.563 1.478 2.619 4.14 2.619 2.788 0 4.097-1.183 4.097-2.619 0-1.774-1.985-1.985-4.435-2.323-3.379-.422-7.983-1.056-7.983-5.998 0-4.182 3.252-6.97 8.279-6.97s8.152 2.872 8.237 6.505h-4.52c-.127-1.436-1.436-2.45-3.675-2.45-2.408 0-3.717 1.14-3.717 2.577 0 1.774 2.07 1.985 4.435 2.323 3.21.422 7.983 1.014 7.983 5.998 0 4.224-3.421 7.012-8.701 7.012zm20.767 0c-6.589 0-11.236-4.646-11.236-10.982S93.369 9.305 99.959 9.305c6.589 0 11.236 4.646 11.236 10.982s-4.646 10.982-11.236 10.982zm0-4.224c3.971 0 6.589-2.83 6.589-6.758s-2.619-6.758-6.589-6.758c-3.971 0-6.632 2.83-6.632 6.758s2.661 6.758 6.632 6.758zm13.552 3.675V.73h4.562v29.99h-4.562zm18.088.549c-6.168 0-10.307-3.548-10.307-10.56V9.853h4.562v10.856c0 4.224 2.282 6.336 5.745 6.336s5.745-2.112 5.745-6.336V9.853h4.562v10.856c0 6.97-4.14 10.56-10.307 10.56zm21.201 0c-5.027 0-8.448-2.788-8.448-8.532V2.462h4.562v7.392h11.109v4.14h-11.109v8.744c0 3.041 1.563 4.308 3.886 4.308s3.928-1.225 3.928-4.308v-.507h4.52v.507c0 5.745-3.421 8.532-8.448 8.532zm13.075-24.372c-1.774 0-3.084-1.352-3.084-3.126S164.1.645 165.875.645c1.774 0 3.084 1.352 3.084 3.126s-1.309 3.126-3.084 3.126zm-2.323 23.823V9.853h4.562V30.72h-4.562zm18.131.549c-6.589 0-11.236-4.646-11.236-10.982s4.646-10.982 11.236-10.982c6.589 0 11.236 4.646 11.236 10.982s-4.646 10.982-11.236 10.982zm0-4.224c3.971 0 6.589-2.83 6.589-6.758s-2.619-6.758-6.589-6.758c-3.971 0-6.632 2.83-6.632 6.758s2.661 6.758 6.632 6.758zm12.835 3.675V19.864c0-6.97 4.14-10.56 10.307-10.56s10.307 3.548 10.307 10.56V30.72h-4.562V19.864c0-4.224-2.281-6.336-5.745-6.336s-5.745 2.112-5.745 6.336V30.72h-4.562z"/></symbol><symbol id="iicon-logo3" viewBox="0 0 105 32"><path fill="#97d28b" style="fill:var(--color2, #97d28b)" d="M7.004 14.471c-1.944 0-3.419-.61-4.427-1.831S1.066 9.831 1.066 7.876c0-.901.113-1.736.338-2.507a6.949 6.949 0 0 1 1.031-2.098c.462-.628 1.079-1.12 1.849-1.476s1.653-.533 2.649-.533c1.363 0 2.477.32 3.342.96.865.628 1.458 1.541 1.778 2.738l-1.618.338C9.902 3.603 8.74 2.756 6.951 2.756c-1.339 0-2.382.456-3.129 1.369s-1.12 2.181-1.12 3.804c0 1.636.379 2.898 1.138 3.787.759.877 1.825 1.316 3.2 1.316 1.15 0 2.044-.284 2.684-.853.652-.569.978-1.256.978-2.062V8.784H7.164V7.433h5.084v2.418c0 1.316-.456 2.418-1.369 3.307-.913.877-2.204 1.316-3.876 1.316zm7.555-.249V1.529h4.658c1.339 0 2.388.326 3.147.978.759.64 1.138 1.535 1.138 2.684 0 .924-.255 1.695-.764 2.311-.51.604-1.233 1.001-2.169 1.191l3.093 5.529h-1.884l-2.809-5.298h-2.773v5.298H14.56zm1.635-6.773h2.969c.841 0 1.493-.19 1.956-.569.474-.379.711-.907.711-1.582 0-1.553-.901-2.329-2.702-2.329h-2.933v4.48zm9.615 6.773V1.529h8.569v1.44h-6.933v4.107h5.742v1.44h-5.742v4.267h6.951v1.44h-8.587zm10.748 0V1.529h8.569v1.44h-6.933v4.107h5.742v1.44h-5.742v4.267h6.951v1.44h-8.587zm10.747 0V1.529h1.973l5.831 8.693.96 1.529h.178l-.018-2.436V1.528h1.582v12.693h-1.884L50.29 5.883l-1.227-1.884h-.16l.018 2.418v7.804h-1.618z"/><path fill="#173d33" style="fill:var(--color1, #173d33)" d="M60.881 14.222V1.529h8.569v1.44h-6.933v4.107h5.742v1.44h-5.742v4.267h6.951v1.44h-8.587zm10.747 0V1.529h4.658c1.339 0 2.388.326 3.147.978.758.64 1.138 1.535 1.138 2.684 0 .924-.255 1.695-.764 2.311-.51.604-1.233 1.001-2.169 1.191l3.093 5.529h-1.884l-2.809-5.298h-2.773v5.298h-1.636zm1.636-6.773h2.969c.841 0 1.493-.19 1.956-.569.474-.379.711-.907.711-1.582 0-1.553-.901-2.329-2.702-2.329h-2.933v4.48zm14.735 7.022c-1.944 0-3.419-.61-4.427-1.831s-1.511-2.809-1.511-4.764c0-.901.113-1.736.338-2.507a6.949 6.949 0 0 1 1.031-2.098c.462-.628 1.078-1.12 1.849-1.476s1.653-.533 2.649-.533c1.363 0 2.477.32 3.342.96.865.628 1.458 1.541 1.778 2.738l-1.618.338c-.533-1.695-1.695-2.542-3.484-2.542-1.339 0-2.382.456-3.129 1.369s-1.12 2.181-1.12 3.804c0 1.636.379 2.898 1.138 3.787.758.877 1.825 1.316 3.2 1.316 1.15 0 2.044-.284 2.684-.853.652-.569.978-1.256.978-2.062V8.784h-3.538V7.433h5.084v2.418c0 1.316-.456 2.418-1.369 3.307-.913.877-2.204 1.316-3.876 1.316zm10.46-.249V9.724L93.89 1.528h1.902l3.467 6.596 3.484-6.596h1.884l-4.533 8.196v4.498h-1.636zm-96.575 16V17.529h8.32v1.44H3.52v4.409h5.547v1.458H3.52v5.387H1.884zm15.105.249c-1.884 0-3.36-.634-4.427-1.902-1.055-1.268-1.582-2.839-1.582-4.711s.539-3.437 1.618-4.693c1.09-1.268 2.554-1.902 4.391-1.902s3.301.634 4.391 1.902c1.09 1.268 1.636 2.833 1.636 4.693 0 1.873-.533 3.443-1.6 4.711-1.055 1.268-2.53 1.902-4.427 1.902zm0-1.458c1.327 0 2.382-.468 3.164-1.404.794-.936 1.191-2.187 1.191-3.751 0-1.553-.397-2.797-1.191-3.733-.794-.96-1.849-1.44-3.164-1.44-1.292 0-2.341.48-3.147 1.44-.794.936-1.191 2.181-1.191 3.733 0 1.564.391 2.815 1.173 3.751.794.936 1.849 1.404 3.164 1.404zm8.23 1.209V17.529h4.658c1.339 0 2.388.326 3.147.978.758.64 1.138 1.535 1.138 2.684 0 .924-.255 1.695-.764 2.311-.51.604-1.233 1.001-2.169 1.191l3.093 5.529h-1.884l-2.809-5.298h-2.773v5.298H25.22zm1.636-6.773h2.969c.841 0 1.493-.19 1.956-.569.474-.379.711-.907.711-1.582 0-1.553-.901-2.329-2.702-2.329h-2.933v4.48zm13.695 6.773V17.529h1.636v11.236h6.667v1.458h-8.302zm9.984 0V17.529h1.636v12.693h-1.636zm4.705 0V17.529h8.32v1.44h-6.684v4.409h5.547v1.458h-5.547v5.387h-1.636zm10.123 0V17.529h8.569v1.44h-6.933v4.107h5.742v1.44h-5.742v4.267h6.951v1.44h-8.587z"/></symbol><symbol id="iicon-map" viewBox="0 0 32 32"><path stroke-linejoin="round" stroke-linecap="round" stroke-width="2" d="M3.053 10.373v12.973c0 2.533 1.8 3.573 3.987 2.32l3.133-1.787c.68-.387 1.813-.427 2.52-.067l7 3.507c.707.347 1.84.32 2.52-.067l5.773-3.307c.733-.427 1.347-1.467 1.347-2.32V8.652c0-2.533-1.8-3.573-3.987-2.32l-3.133 1.787c-.68.387-1.813.427-2.52.067l-7-3.493c-.707-.347-1.84-.32-2.52.067L4.4 8.067c-.747.427-1.347 1.467-1.347 2.307zM11.413 5.333v17.333M20.973 8.826v17.84"/></symbol><symbol id="iicon-maximize-circle" viewBox="0 0 32 32"><path stroke-linejoin="round" stroke-linecap="round" stroke-width="2" d="M22.667 4H28v5.333M20 12l8-8M9.333 28H4v-5.333M12 20l-8 8M18.693 2.933A13.794 13.794 0 0 0 16 2.666c-7.36 0-13.333 5.973-13.333 13.333 0 .92.093 1.813.267 2.667M13.307 29.067c.867.173 1.773.267 2.693.267 7.36 0 13.333-5.973 13.333-13.333 0-.907-.093-1.8-.267-2.667"/></symbol><symbol id="iicon-minus" viewBox="0 0 32 32"><path stroke-linejoin="round" stroke-linecap="round" stroke-width="3" d="M8 16h16"/></symbol><symbol id="iicon-phone" viewBox="0 0 32 32"><path stroke-miterlimit="10" stroke-width="2" d="M29.293 24.44c0 .48-.107.973-.333 1.453s-.52.933-.907 1.36c-.653.72-1.373 1.24-2.187 1.573-.8.333-1.667.507-2.6.507-1.36 0-2.813-.32-4.347-.973s-3.067-1.533-4.587-2.64a38.332 38.332 0 0 1-4.373-3.733 37.98 37.98 0 0 1-3.72-4.36c-1.093-1.52-1.973-3.04-2.613-4.547-.64-1.52-.96-2.973-.96-4.36 0-.907.16-1.773.48-2.573.32-.813.827-1.56 1.533-2.227.853-.84 1.787-1.253 2.773-1.253.373 0 .747.08 1.08.24.347.16.653.4.893.747l3.093 4.36c.24.333.413.64.533.933.12.28.187.56.187.813 0 .32-.093.64-.28.947a4.52 4.52 0 0 1-.747.947l-1.013 1.053a.712.712 0 0 0-.213.533c0 .107.013.2.04.307.04.107.08.187.107.267.24.44.653 1.013 1.24 1.707.6.693 1.24 1.4 1.933 2.107.72.707 1.413 1.36 2.12 1.96.693.587 1.267.987 1.72 1.227.067.027.147.067.24.107a.92.92 0 0 0 .333.053c.227 0 .4-.08.547-.227l1.013-1c.333-.333.653-.587.96-.747.307-.187.613-.28.947-.28.253 0 .52.053.813.173s.6.293.933.52l4.413 3.133c.347.24.587.52.733.853.133.333.213.667.213 1.04z"/></symbol><symbol id="iicon-plus" viewBox="0 0 32 32"><path stroke-linejoin="round" stroke-linecap="round" stroke-width="3" d="M8 16h16M16 24V8"/></symbol><symbol id="iicon-ranking" viewBox="0 0 32 32"><path stroke-linejoin="round" stroke-linecap="round" stroke-miterlimit="10" stroke-width="2" d="M11.56 18.667H5.333a2.675 2.675 0 0 0-2.667 2.667v8h8.893V18.667z"/><path stroke-linejoin="round" stroke-linecap="round" stroke-miterlimit="10" stroke-width="2" d="M17.774 13.333h-3.56A2.675 2.675 0 0 0 11.547 16v13.333h8.893V16a2.666 2.666 0 0 0-2.667-2.667z"/><path stroke-linejoin="round" stroke-linecap="round" stroke-miterlimit="10" stroke-width="2" d="M26.667 22.667H20.44v6.667h8.893v-4c0-1.467-1.2-2.667-2.667-2.667z"/><path stroke-linejoin="round" stroke-linecap="round" stroke-width="2" d="m16.693 2.76.707 1.413c.093.2.347.387.56.413l1.28.213c.813.133 1.013.733.427 1.307l-1 1c-.173.173-.267.493-.213.72l.28 1.227c.227.973-.293 1.347-1.147.84l-1.2-.707a.826.826 0 0 0-.787 0l-1.2.707c-.853.507-1.373.133-1.147-.84l.28-1.227c.053-.227-.04-.56-.213-.72l-.987-.987c-.587-.587-.4-1.173.427-1.307l1.28-.213a.89.89 0 0 0 .56-.413l.707-1.413c.387-.773 1-.773 1.387-.013z"/></symbol><symbol id="iicon-sms" viewBox="0 0 32 32"><path stroke-linejoin="round" stroke-linecap="round" stroke-miterlimit="10" stroke-width="2" d="M22.667 27.333H9.334c-4 0-6.667-2-6.667-6.667v-9.333c0-4.667 2.667-6.667 6.667-6.667h13.333c4 0 6.667 2 6.667 6.667v9.333c0 4.667-2.667 6.667-6.667 6.667z"/><path stroke-linejoin="round" stroke-linecap="round" stroke-miterlimit="10" stroke-width="2" d="m22.667 12-4.173 3.333c-1.373 1.093-3.627 1.093-5 0L9.334 12"/></symbol><symbol id="iicon-arrow-right-top" viewBox="0 0 32 32"><path stroke-linejoin="round" stroke-linecap="round" stroke-miterlimit="10" stroke-width="1.714" d="M12.569 7.985h11.446v11.446M7.987 24.012 23.855 8.145"/></symbol></defs></svg></svg>